
<svg version="1.0" xmlns="http://www.w3.org/2000/svg"
 width="1080.000000pt" height="1080.000000pt" viewBox="0 0 1080.000000 1080.000000"
 preserveAspectRatio="xMidYMid meet">

<g transform="translate(0.000000,1080.000000) scale(0.100000,-0.100000)"
fill="#358acf" stroke="none">
<path d="M0 5400 l0 -5400 5400 0 5400 0 0 5400 0 5400 -5400 0 -5400 0 0
-5400z m3385 1854 c208 -27 354 -62 533 -126 l82 -30 0 -294 c0 -206 -3 -294
-11 -294 -6 0 -54 13 -107 30 -251 77 -531 112 -792 99 -298 -16 -444 -93
-410 -218 9 -36 51 -83 100 -113 41 -24 133 -53 376 -117 287 -75 364 -100
489 -160 189 -90 337 -208 415 -328 l33 -53 102 233 c57 127 169 376 250 552
156 342 260 592 296 718 l23 77 404 0 404 0 -7 -37 c-11 -67 -91 -294 -153
-438 -77 -180 -207 -462 -362 -785 -67 -140 -149 -312 -181 -382 l-58 -128
180 0 179 0 0 210 0 210 390 0 390 0 0 -210 0 -210 75 0 75 0 0 885 0 885 395
0 395 0 0 -953 c0 -1040 -1 -1017 57 -1117 41 -70 122 -142 204 -182 105 -51
165 -63 304 -62 198 2 313 43 426 154 73 72 111 141 128 234 7 41 11 361 11
993 l0 933 390 0 391 0 -3 -1067 -3 -1068 -23 -78 c-105 -364 -435 -628 -894
-716 -404 -78 -847 -41 -1167 98 -179 78 -377 235 -467 370 l-27 41 -133 0
-134 0 0 -255 0 -255 -395 0 -395 0 0 255 0 255 -525 0 -525 0 -21 -42 c-154
-306 -495 -482 -974 -505 -300 -14 -734 56 -978 158 -40 17 -84 35 -99 41
l-28 10 0 294 c0 182 4 294 10 294 5 0 33 -10 62 -21 194 -78 405 -125 638
-141 351 -24 603 31 661 144 25 49 21 113 -10 157 -44 61 -183 116 -511 201
-268 70 -384 108 -507 165 -280 131 -411 284 -452 530 -28 165 -22 350 15 500
21 84 104 250 156 311 173 204 415 317 763 358 93 10 442 5 550 -10z m3705
-3210 c0 -13 -61 -542 -65 -571 l-6 -32 58 -3 58 -3 -3 -55 c-5 -100 -5 -100
-71 -100 l-58 0 -13 -124 c-7 -68 -15 -128 -19 -133 -8 -13 -158 -25 -166 -14
-5 8 14 151 31 235 l6 28 -138 -3 c-121 -4 -139 -2 -142 12 -1 9 68 181 154
383 119 281 161 370 178 376 23 10 196 13 196 4z m-3875 -71 c-11 -110 -11
-110 -64 -117 -32 -4 -55 -14 -71 -31 -29 -30 -26 -49 37 -280 60 -216 64
-307 20 -398 -47 -94 -158 -152 -284 -145 l-58 3 3 45 c8 108 10 112 85 130
36 9 76 25 88 36 19 17 21 26 16 94 -3 48 -20 124 -47 210 -47 152 -63 287
-40 354 32 99 138 161 279 165 l43 1 -7 -67z m540 57 c5 -8 -11 -159 -18 -166
-1 -2 -52 -6 -113 -10 l-111 -7 -7 -76 c-4 -42 -10 -93 -13 -115 l-6 -38 101
3 c59 2 105 0 110 -6 5 -6 4 -42 -2 -85 l-11 -75 -104 -7 c-56 -4 -105 -9
-108 -12 -4 -3 -33 -212 -33 -238 0 -5 59 -8 131 -8 l132 0 -7 -77 c-3 -42
-11 -82 -16 -87 -10 -10 -421 -29 -429 -20 -6 6 108 1006 115 1013 3 3 78 9
167 12 89 3 174 6 189 7 15 1 30 -2 33 -8z m521 -20 c85 -37 123 -127 106
-254 -17 -128 -86 -239 -170 -277 -18 -8 -32 -19 -32 -24 0 -6 41 -105 90
-220 50 -115 87 -212 83 -216 -5 -4 -46 -9 -92 -11 l-85 -3 -82 205 c-46 113
-83 196 -84 185 0 -11 -9 -96 -20 -190 -11 -93 -20 -175 -20 -181 0 -16 -160
-30 -169 -15 -8 12 104 999 114 1009 10 10 191 20 260 15 33 -3 78 -13 101
-23z m1536 11 c7 -6 -8 -136 -17 -150 -2 -4 -42 -5 -87 -3 -79 4 -86 3 -114
-22 -39 -32 -58 -97 -78 -271 -37 -311 -32 -388 21 -401 14 -4 66 -4 115 0
l90 7 -7 -63 c-3 -35 -8 -70 -11 -79 -6 -21 -93 -39 -183 -39 -109 1 -179 47
-210 139 -34 103 14 595 73 735 50 121 155 171 331 158 39 -2 73 -7 77 -11z
m515 7 c7 -9 7 -39 1 -89 l-10 -76 -76 -7 c-41 -3 -92 -6 -112 -6 l-37 0 -11
-94 c-19 -153 -29 -138 91 -135 l102 4 -2 -64 c-3 -113 -2 -111 -91 -112 -42
-1 -90 -4 -107 -8 -30 -6 -30 -7 -42 -101 -6 -52 -12 -107 -12 -122 l-1 -28
131 0 131 0 -7 -77 c-4 -43 -11 -82 -16 -88 -11 -11 -421 -27 -430 -17 -8 9
106 1000 116 1010 3 4 79 10 168 13 89 3 172 6 183 7 12 1 26 -4 31 -10z
m-1677 -359 l15 -357 83 352 c46 193 86 353 88 355 2 2 40 6 84 9 73 4 80 3
80 -14 0 -11 -65 -239 -143 -509 l-143 -490 -83 -9 c-45 -4 -85 -5 -89 -2 -5
6 -80 905 -81 988 -1 32 14 36 109 34 l65 -1 15 -356z m610 336 c0 -29 -109
-987 -112 -991 -2 -1 -40 -5 -85 -9 l-83 -8 0 26 c0 14 25 242 55 506 30 264
55 482 55 485 0 8 41 13 108 15 60 1 62 0 62 -24z m2440 1 c0 -13 -18 -184
-40 -381 -22 -197 -40 -373 -40 -391 0 -62 74 -99 113 -56 31 34 39 81 82 456
24 208 46 381 49 384 4 3 42 7 86 10 79 5 80 4 80 -20 0 -46 -81 -733 -91
-773 -30 -120 -70 -177 -146 -212 -47 -22 -66 -25 -137 -22 -101 5 -151 32
-185 101 -31 64 -28 150 19 558 22 192 40 352 40 354 0 8 42 13 108 15 59 1
62 0 62 -23z"/>
<path d="M6833 3593 l-60 -158 39 -3 c22 -2 42 -1 45 2 6 6 45 307 40 312 -2
3 -31 -67 -64 -153z"/>
<path d="M4066 3869 c-7 -24 -35 -303 -31 -308 12 -11 98 35 124 65 51 63 69
180 33 224 -22 28 -119 42 -126 19z"/>
</g>
</svg>
